NotoSansKayahLi-Bold.ufo
<glyph name="hyphen" format="2">
  <advance width="392"/>
  <unicode hex="002D"/>
  <outline>
    <contour>
      <point x="30" y="186" type="line"/>
      <point x="362" y="186" type="line"/>
      <point x="362" y="369" type="line"/>
      <point x="30" y="369" type="line"/>
    </contour>
  </outline>
</glyph>
<glyph name="hyphentwo" format="2">
  <advance width="392"/>
  <unicode hex="2010"/>
  <outline>
    <contour>
      <point x="30" y="186" type="line"/>
      <point x="362" y="186" type="line"/>
      <point x="362" y="369" type="line"/>
      <point x="30" y="369" type="line"/>
    </contour>
  </outline>
</glyph>
<glyph name="uniA900" format="2">
  <advance width="812"/>
  <unicode hex="A900"/>
  <outline>
    <contour>
      <point x="397" y="-10" type="curve" smooth="yes"/>
      <point x="671" y="-10"/>
      <point x="747" y="49"/>
      <point x="747" y="272" type="curve" smooth="yes"/>
      <point x="747" y="510"/>
      <point x="663" y="562"/>
      <point x="402" y="562" type="curve" smooth="yes"/>
      <point x="136" y="562"/>
      <point x="65" y="510"/>
      <point x="65" y="272" type="curve" smooth="yes"/>
      <point x="65" y="49"/>
      <point x="151" y="-10"/>
    </contour>
    <contour>
      <point x="400" y="116" type="curve" smooth="yes"/>
      <point x="292" y="116"/>
      <point x="259" y="169"/>
      <point x="259" y="272" type="curve" smooth="yes"/>
      <point x="259" y="396"/>
      <point x="285" y="436"/>
      <point x="399" y="436" type="curve" smooth="yes"/>
      <point x="517" y="436"/>
      <point x="553" y="391"/>
      <point x="553" y="272" type="curve" smooth="yes"/>
      <point x="553" y="163"/>
      <point x="521" y="116"/>
    </contour>
  </outline>
</glyph>
<glyph name="uniA901" format="2">
  <advance width="812"/>
  <unicode hex="A901"/>
  <outline>
    <contour>
      <point x="420" y="0" type="curve" smooth="yes"/>
      <point x="494" y="0" type="line" smooth="yes"/>
      <point x="692" y="0"/>
      <point x="747" y="24"/>
      <point x="747" y="167" type="curve" smooth="yes"/>
      <point x="747" y="241" type="line"/>
      <point x="575" y="241" type="line" smooth="yes"/>
      <point x="455" y="241"/>
      <point x="372" y="193"/>
      <point x="303" y="110" type="curve"/>
      <point x="274" y="110"/>
      <point x="262" y="133"/>
      <point x="262" y="189" type="curve" smooth="yes"/>
      <point x="262" y="259"/>
      <point x="283" y="282"/>
      <point x="389" y="282" type="curve" smooth="yes"/>
      <point x="502" y="282"/>
      <point x="539" y="276"/>
      <point x="555" y="260" type="curve"/>
      <point x="747" y="260" type="line"/>
      <point x="747" y="553" type="line"/>
      <point x="65" y="553" type="line"/>
      <point x="65" y="438" type="line"/>
      <point x="555" y="438" type="line"/>
      <point x="555" y="365" type="line"/>
      <point x="514" y="382"/>
      <point x="463" y="388"/>
      <point x="392" y="388" type="curve" smooth="yes"/>
      <point x="116" y="388"/>
      <point x="65" y="321"/>
      <point x="65" y="189" type="curve" smooth="yes"/>
      <point x="65" y="22"/>
      <point x="112" y="0"/>
    </contour>
    <contour>
      <point x="407" y="110" type="line"/>
      <point x="449" y="151"/>
      <point x="484" y="165"/>
      <point x="563" y="169" type="curve"/>
      <point x="563" y="160" type="line" smooth="yes"/>
      <point x="563" y="140"/>
      <point x="551" y="110"/>
      <point x="506" y="110" type="curve" smooth="yes"/>
    </contour>
  </outline>
</glyph>
<glyph name="uniA902" format="2">
  <advance width="812"/>
  <unicode hex="A902"/>
  <outline>
    <contour>
      <point x="374" y="0" type="line"/>
      <point x="437" y="0" type="line"/>
      <point x="747" y="553" type="line"/>
      <point x="581" y="553" type="line"/>
      <point x="409" y="221" type="line"/>
      <point x="245" y="553" type="line"/>
      <point x="65" y="553" type="line"/>
    </contour>
  </outline>
</glyph>
<glyph name="uniA903" format="2">
  <advance width="812"/>
  <unicode hex="A903"/>
  <outline>
    <contour>
      <point x="65" y="0" type="line"/>
      <point x="584" y="0" type="line" smooth="yes"/>
      <point x="692" y="0"/>
      <point x="747" y="45"/>
      <point x="747" y="162" type="curve" smooth="yes"/>
      <point x="747" y="333" type="line"/>
      <point x="687" y="333" type="line" smooth="yes"/>
      <point x="528" y="333"/>
      <point x="415" y="226"/>
      <point x="333" y="129" type="curve"/>
      <point x="258" y="129" type="line"/>
      <point x="717" y="520" type="line"/>
      <point x="717" y="553" type="line"/>
      <point x="322" y="553" type="line" smooth="yes"/>
      <point x="160" y="553"/>
      <point x="81" y="519"/>
      <point x="81" y="343" type="curve"/>
      <point x="213" y="343" type="line"/>
      <point x="213" y="407"/>
      <point x="237" y="429"/>
      <point x="322" y="429" type="curve" smooth="yes"/>
      <point x="411" y="429" type="line"/>
      <point x="65" y="133" type="line"/>
    </contour>
    <contour>
      <point x="467" y="129" type="line"/>
      <point x="521" y="179"/>
      <point x="564" y="214"/>
      <point x="631" y="218" type="curve"/>
      <point x="631" y="184" type="line" smooth="yes"/>
      <point x="631" y="159"/>
      <point x="619" y="129"/>
      <point x="586" y="129" type="curve" smooth="yes"/>
    </contour>
  </outline>
</glyph>
<glyph name="uniA904" format="2">
  <advance width="812"/>
  <unicode hex="A904"/>
  <outline>
    <contour>
      <point x="444" y="-5" type="line"/>
      <point x="525" y="-5" type="line" smooth="yes"/>
      <point x="680" y="-5"/>
      <point x="747" y="60"/>
      <point x="747" y="200" type="curve" smooth="yes"/>
      <point x="747" y="563" type="line"/>
      <point x="617" y="563" type="line" smooth="yes"/>
      <point x="427" y="563"/>
      <point x="326" y="482"/>
      <point x="257" y="380" type="curve"/>
      <point x="252" y="381" type="line"/>
      <point x="255" y="398"/>
      <point x="259" y="434"/>
      <point x="259" y="484" type="curve" smooth="yes"/>
      <point x="259" y="553" type="line"/>
      <point x="65" y="553" type="line"/>
      <point x="65" y="179" type="line"/>
      <point x="257" y="179" type="line"/>
      <point x="288" y="278"/>
      <point x="402" y="419"/>
      <point x="553" y="419" type="curve"/>
      <point x="553" y="232" type="line" smooth="yes"/>
      <point x="553" y="167"/>
      <point x="536" y="144"/>
      <point x="482" y="144" type="curve" smooth="yes"/>
      <point x="444" y="144" type="line"/>
    </contour>
  </outline>
</glyph>
<glyph name="uniA905" format="2">
  <advance width="812"/>
  <unicode hex="A905"/>
  <outline>
    <contour>
      <point x="65" y="553" type="line"/>
      <point x="65" y="0" type="line"/>
      <point x="411" y="0" type="line"/>
      <point x="411" y="125" type="line"/>
      <point x="242" y="125" type="line"/>
      <point x="242" y="428" type="line"/>
      <point x="747" y="428" type="line"/>
      <point x="747" y="553" type="line"/>
    </contour>
  </outline>
</glyph>
<glyph name="uniA906" format="2">
  <advance width="812"/>
  <unicode hex="A906"/>
  <outline>
    <contour>
      <point x="521" y="-10" type="curve" smooth="yes"/>
      <point x="684" y="-10"/>
      <point x="747" y="55"/>
      <point x="747" y="212" type="curve" smooth="yes"/>
      <point x="747" y="563" type="line"/>
      <point x="562" y="563" type="line"/>
      <point x="259" y="363" type="line"/>
      <point x="259" y="553" type="line"/>
      <point x="65" y="553" type="line"/>
      <point x="65" y="0" type="line"/>
      <point x="259" y="0" type="line"/>
      <point x="259" y="210" type="line"/>
      <point x="553" y="404" type="line"/>
      <point x="553" y="233" type="line"/>
      <point x="541" y="238"/>
      <point x="521" y="245"/>
      <point x="491" y="245" type="curve" smooth="yes"/>
      <point x="403" y="245"/>
      <point x="360" y="196"/>
      <point x="360" y="117" type="curve" smooth="yes"/>
      <point x="360" y="42"/>
      <point x="413" y="-10"/>
    </contour>
    <contour>
      <point x="495" y="68" type="curve" smooth="yes"/>
      <point x="461" y="68"/>
      <point x="443" y="84"/>
      <point x="443" y="120" type="curve" smooth="yes"/>
      <point x="443" y="153"/>
      <point x="463" y="171"/>
      <point x="497" y="171" type="curve" smooth="yes"/>
      <point x="523" y="171"/>
      <point x="541" y="162"/>
      <point x="553" y="157" type="curve"/>
      <point x="553" y="143" type="line" smooth="yes"/>
      <point x="553" y="97"/>
      <point x="530" y="68"/>
    </contour>
  </outline>
</glyph>
<glyph name="uniA907" format="2">
  <advance width="812"/>
  <unicode hex="A907"/>
  <outline>
    <contour>
      <point x="410" y="-10" type="curve"/>
      <point x="678" y="-10"/>
      <point x="747" y="49"/>
      <point x="747" y="272" type="curve" smooth="yes"/>
      <point x="747" y="553" type="line"/>
      <point x="554" y="553" type="line"/>
      <point x="554" y="264" type="line" smooth="yes"/>
      <point x="554" y="153"/>
      <point x="518" y="116"/>
      <point x="410" y="116" type="curve" smooth="yes"/>
      <point x="293" y="116"/>
      <point x="258" y="153"/>
      <point x="258" y="264" type="curve" smooth="yes"/>
      <point x="258" y="421" type="line"/>
      <point x="65" y="421" type="line"/>
      <point x="65" y="272" type="line" smooth="yes"/>
      <point x="65" y="49"/>
      <point x="121" y="-10"/>
    </contour>
    <contour>
      <point x="405" y="429" type="line"/>
      <point x="682" y="429" type="line"/>
      <point x="683" y="443"/>
      <point x="683" y="513"/>
      <point x="683" y="526" type="curve"/>
      <point x="564" y="553" type="line"/>
      <point x="405" y="553" type="line"/>
    </contour>
  </outline>
</glyph>
<glyph name="uniA908" format="2">
  <advance width="812"/>
  <unicode hex="A908"/>
  <outline>
    <contour>
      <point x="65" y="0" type="line"/>
      <point x="747" y="0" type="line"/>
      <point x="747" y="283" type="line"/>
      <point x="553" y="283" type="line"/>
      <point x="553" y="125" type="line"/>
      <point x="259" y="125" type="line"/>
      <point x="259" y="553" type="line"/>
      <point x="65" y="553" type="line"/>
    </contour>
  </outline>
</glyph>
<glyph name="uniA909" format="2">
  <advance width="812"/>
  <unicode hex="A909"/>
  <outline>
    <contour>
      <point x="390" y="-10" type="curve"/>
      <point x="691" y="-10"/>
      <point x="747" y="49"/>
      <point x="747" y="272" type="curve" smooth="yes"/>
      <point x="747" y="421" type="line"/>
      <point x="554" y="421" type="line"/>
      <point x="554" y="264" type="line" smooth="yes"/>
      <point x="554" y="153"/>
      <point x="519" y="115"/>
      <point x="402" y="115" type="curve"/>
      <point x="294" y="115"/>
      <point x="258" y="153"/>
      <point x="258" y="264" type="curve" smooth="yes"/>
      <point x="258" y="553" type="line"/>
      <point x="65" y="553" type="line"/>
      <point x="65" y="272" type="line" smooth="yes"/>
      <point x="65" y="49"/>
      <point x="134" y="-10"/>
    </contour>
    <contour>
      <point x="130" y="429" type="curve"/>
      <point x="407" y="429" type="line"/>
      <point x="407" y="553" type="line"/>
      <point x="248" y="553" type="line"/>
      <point x="129" y="526" type="line"/>
      <point x="129" y="513"/>
      <point x="129" y="443"/>
    </contour>
  </outline>
</glyph>
<glyph name="uniA90A" format="2">
  <advance width="812"/>
  <unicode hex="A90A"/>
  <anchor x="406" y="0" name="bottom"/>
  <anchor x="263" y="0" name="bottom_alt"/>
  <anchor x="406" y="605" name="top"/>
  <outline>
    <contour>
      <point x="65" y="0" type="line"/>
      <point x="184" y="62" type="line"/>
      <point x="184" y="71"/>
      <point x="183" y="85"/>
      <point x="183" y="97" type="curve" smooth="yes"/>
      <point x="183" y="313"/>
      <point x="420" y="438"/>
      <point x="553" y="438" type="curve"/>
      <point x="553" y="0" type="line"/>
      <point x="747" y="0" type="line"/>
      <point x="747" y="563" type="line"/>
      <point x="632" y="563" type="line" smooth="yes"/>
      <point x="361" y="563"/>
      <point x="65" y="340"/>
      <point x="65" y="74" type="curve" smooth="yes"/>
    </contour>
    <contour>
      <point x="65" y="0" type="line"/>
      <point x="256" y="0" type="line" smooth="yes"/>
      <point x="396" y="0"/>
      <point x="441" y="59"/>
      <point x="441" y="174" type="curve" smooth="yes"/>
      <point x="441" y="553" type="line"/>
      <point x="95" y="553" type="line"/>
      <point x="95" y="453" type="line"/>
      <point x="268" y="453" type="line"/>
      <point x="268" y="156" type="line" smooth="yes"/>
      <point x="268" y="108"/>
      <point x="247" y="99"/>
      <point x="216" y="99" type="curve" smooth="yes"/>
      <point x="125" y="99" type="line"/>
    </contour>
  </outline>
</glyph>
<glyph name="uniA90B" format="2">
  <advance width="812"/>
  <unicode hex="A90B"/>
  <anchor x="406" y="0" name="bottom"/>
  <anchor x="262" y="0" name="bottom_alt"/>
  <anchor x="406" y="605" name="top"/>
  <outline>
    <contour>
      <point x="397" y="-10" type="curve" smooth="yes"/>
      <point x="683" y="-10"/>
      <point x="747" y="50"/>
      <point x="747" y="264" type="curve" smooth="yes"/>
      <point x="747" y="484"/>
      <point x="681" y="562"/>
      <point x="402" y="562" type="curve" smooth="yes"/>
      <point x="166" y="562"/>
      <point x="65" y="501"/>
      <point x="65" y="301" type="curve" smooth="yes"/>
      <point x="65" y="288"/>
      <point x="65" y="261"/>
      <point x="66" y="237" type="curve"/>
      <point x="633" y="237" type="line"/>
      <point x="633" y="336" type="line"/>
      <point x="261" y="336" type="line"/>
      <point x="269" y="398"/>
      <point x="294" y="436"/>
      <point x="399" y="436" type="curve" smooth="yes"/>
      <point x="517" y="436"/>
      <point x="550" y="383"/>
      <point x="550" y="264" type="curve" smooth="yes"/>
      <point x="550" y="156"/>
      <point x="524" y="116"/>
      <point x="400" y="116" type="curve" smooth="yes"/>
      <point x="324" y="116"/>
      <point x="260" y="144"/>
      <point x="260" y="205" type="curve"/>
      <point x="65" y="205" type="line"/>
      <point x="65" y="22"/>
      <point x="164" y="-10"/>
    </contour>
  </outline>
</glyph>
<glyph name="uniA90C" format="2">
  <advance width="812"/>
  <unicode hex="A90C"/>
  <anchor x="406" y="0" name="bottom"/>
  <anchor x="260" y="0" name="bottom_alt"/>
  <anchor x="406" y="605" name="top"/>
  <outline>
    <contour>
      <point x="65" y="0" type="line"/>
      <point x="258" y="0" type="line"/>
      <point x="258" y="73" type="line" smooth="yes"/>
      <point x="258" y="271"/>
      <point x="420" y="420"/>
      <point x="554" y="420" type="curve"/>
      <point x="554" y="0" type="line"/>
      <point x="747" y="0" type="line"/>
      <point x="747" y="563" type="line"/>
      <point x="592" y="563" type="line" smooth="yes"/>
      <point x="522" y="563"/>
      <point x="412" y="536"/>
      <point x="335" y="467" type="curve" smooth="yes"/>
      <point x="291" y="428"/>
      <point x="271" y="396"/>
      <point x="256" y="360" type="curve"/>
      <point x="251" y="361" type="line"/>
      <point x="254" y="373"/>
      <point x="257" y="401"/>
      <point x="257" y="458" type="curve" smooth="yes"/>
      <point x="257" y="553" type="line"/>
      <point x="65" y="553" type="line"/>
    </contour>
    <contour>
      <point x="127" y="174" type="line"/>
      <point x="633" y="174" type="line"/>
      <point x="633" y="273" type="line"/>
      <point x="203" y="273" type="line"/>
    </contour>
  </outline>
</glyph>
<glyph name="uniA90D" format="2">
  <advance width="812"/>
  <unicode hex="A90D"/>
  <anchor x="406" y="0" name="bottom"/>
  <anchor x="260" y="0" name="bottom_alt"/>
  <anchor x="406" y="605" name="top"/>
  <outline>
    <contour>
      <point x="399" y="-10" type="curve" smooth="yes"/>
      <point x="652" y="-10"/>
      <point x="747" y="33"/>
      <point x="747" y="208" type="curve"/>
      <point x="556" y="208" type="line"/>
      <point x="556" y="153"/>
      <point x="520" y="116"/>
      <point x="412" y="116" type="curve" smooth="yes"/>
      <point x="292" y="116"/>
      <point x="262" y="169"/>
      <point x="262" y="272" type="curve" smooth="yes"/>
      <point x="262" y="396"/>
      <point x="285" y="436"/>
      <point x="411" y="436" type="curve" smooth="yes"/>
      <point x="511" y="436"/>
      <point x="557" y="412"/>
      <point x="557" y="331" type="curve"/>
      <point x="747" y="331" type="line"/>
      <point x="747" y="519"/>
      <point x="650" y="562"/>
      <point x="404" y="562" type="curve" smooth="yes"/>
      <point x="133" y="562"/>
      <point x="65" y="489"/>
      <point x="65" y="272" type="curve" smooth="yes"/>
      <point x="65" y="59"/>
      <point x="138" y="-10"/>
    </contour>
  </outline>
</glyph>
<glyph name="uniA90E" format="2">
  <advance width="812"/>
  <unicode hex="A90E"/>
  <anchor x="396" y="0" name="bottom"/>
  <anchor x="261" y="0" name="bottom_alt"/>
  <anchor x="406" y="605" name="top"/>
  <outline>
    <contour>
      <point x="65" y="0" type="line"/>
      <point x="410" y="0" type="line"/>
      <point x="410" y="109" type="line"/>
      <point x="261" y="109" type="line"/>
      <point x="297" y="166" type="line"/>
      <point x="323" y="156"/>
      <point x="347" y="150"/>
      <point x="387" y="150" type="curve" smooth="yes"/>
      <point x="461" y="150"/>
      <point x="526" y="192"/>
      <point x="526" y="275" type="curve" smooth="yes"/>
      <point x="526" y="345"/>
      <point x="479" y="377"/>
      <point x="414" y="377" type="curve" smooth="yes"/>
      <point x="362" y="377"/>
      <point x="311" y="363"/>
      <point x="264" y="298" type="curve"/>
      <point x="250" y="311"/>
      <point x="235" y="330"/>
      <point x="235" y="360" type="curve" smooth="yes"/>
      <point x="235" y="403"/>
      <point x="281" y="437"/>
      <point x="383" y="437" type="curve" smooth="yes"/>
      <point x="509" y="437"/>
      <point x="553" y="397"/>
      <point x="553" y="289" type="curve" smooth="yes"/>
      <point x="553" y="0" type="line"/>
      <point x="747" y="0" type="line"/>
      <point x="747" y="289" type="line" smooth="yes"/>
      <point x="747" y="511"/>
      <point x="700" y="563"/>
      <point x="370" y="563" type="curve" smooth="yes"/>
      <point x="156" y="563"/>
      <point x="65" y="505"/>
      <point x="65" y="374" type="curve" smooth="yes"/>
      <point x="65" y="276"/>
      <point x="131" y="233"/>
      <point x="185" y="200" type="curve"/>
      <point x="65" y="23" type="line"/>
    </contour>
    <contour>
      <point x="395" y="226" type="curve" smooth="yes"/>
      <point x="371" y="226"/>
      <point x="345" y="236"/>
      <point x="339" y="240" type="curve"/>
      <point x="377" y="298"/>
      <point x="390" y="309"/>
      <point x="414" y="309" type="curve" smooth="yes"/>
      <point x="432" y="309"/>
      <point x="446" y="298"/>
      <point x="446" y="271" type="curve" smooth="yes"/>
      <point x="446" y="245"/>
      <point x="424" y="226"/>
    </contour>
  </outline>
</glyph>
<glyph name="uniA90F" format="2">
  <advance width="812"/>
  <unicode hex="A90F"/>
  <anchor x="406" y="0" name="bottom"/>
  <anchor x="132" y="0" name="bottom_alt"/>
  <anchor x="406" y="605" name="top"/>
  <outline>
    <contour>
      <point x="65" y="-4" type="line"/>
      <point x="277" y="-4"/>
      <point x="324" y="31"/>
      <point x="324" y="187" type="curve" smooth="yes"/>
      <point x="324" y="238" type="line"/>
      <point x="414" y="238"/>
      <point x="525" y="155"/>
      <point x="555" y="0" type="curve"/>
      <point x="747" y="0" type="line"/>
      <point x="747" y="553" type="line"/>
      <point x="65" y="553" type="line"/>
      <point x="65" y="432" type="line"/>
      <point x="555" y="432" type="line"/>
      <point x="555" y="343" type="line" smooth="yes"/>
      <point x="555" y="298"/>
      <point x="559" y="264"/>
      <point x="563" y="244" type="curve"/>
      <point x="558" y="243" type="line"/>
      <point x="517" y="321"/>
      <point x="417" y="375"/>
      <point x="291" y="375" type="curve"/>
      <point x="130" y="375" type="line"/>
      <point x="130" y="202" type="line" smooth="yes"/>
      <point x="130" y="138"/>
      <point x="107" y="117"/>
      <point x="65" y="117" type="curve"/>
    </contour>
  </outline>
</glyph>
<glyph name="uniA910" format="2">
  <advance width="812"/>
  <unicode hex="A910"/>
  <anchor x="406" y="0" name="bottom"/>
  <anchor x="258" y="-118" name="bottom_alt"/>
  <anchor x="406" y="605" name="top"/>
  <outline>
    <contour>
      <point x="65" y="-240" type="line"/>
      <point x="257" y="-240" type="line"/>
      <point x="257" y="50" type="line" smooth="yes"/>
      <point x="257" y="225"/>
      <point x="424" y="420"/>
      <point x="514" y="420" type="curve" smooth="yes"/>
      <point x="552" y="420"/>
      <point x="562" y="397"/>
      <point x="562" y="366" type="curve" smooth="yes"/>
      <point x="562" y="317"/>
      <point x="528" y="280"/>
      <point x="471" y="224" type="curve"/>
      <point x="544" y="115" type="line"/>
      <point x="398" y="115" type="line"/>
      <point x="398" y="0" type="line"/>
      <point x="747" y="0" type="line"/>
      <point x="747" y="23" type="line"/>
      <point x="615" y="209" type="line"/>
      <point x="672" y="251"/>
      <point x="747" y="325"/>
      <point x="747" y="420" type="curve" smooth="yes"/>
      <point x="747" y="485"/>
      <point x="716" y="563"/>
      <point x="583" y="563" type="curve" smooth="yes"/>
      <point x="467" y="563"/>
      <point x="398" y="514"/>
      <point x="338" y="462" type="curve" smooth="yes"/>
      <point x="300" y="429"/>
      <point x="270" y="369"/>
      <point x="255" y="320" type="curve"/>
      <point x="250" y="321" type="line"/>
      <point x="253" y="338"/>
      <point x="257" y="363"/>
      <point x="257" y="420" type="curve" smooth="yes"/>
      <point x="257" y="553" type="line"/>
      <point x="65" y="553" type="line"/>
    </contour>
  </outline>
</glyph>
<glyph name="uniA911" format="2">
  <advance width="812"/>
  <unicode hex="A911"/>
  <anchor x="406" y="19" name="bottom"/>
  <anchor x="259" y="-220" name="bottom_alt"/>
  <anchor x="406" y="605" name="top"/>
  <outline>
    <contour>
      <point x="394" y="-240" type="curve" smooth="yes"/>
      <point x="682" y="-240"/>
      <point x="723" y="-201"/>
      <point x="723" y="-41" type="curve"/>
      <point x="557" y="-41" type="line"/>
      <point x="557" y="-99"/>
      <point x="540" y="-114"/>
      <point x="395" y="-114" type="curve" smooth="yes"/>
      <point x="294" y="-114"/>
      <point x="260" y="-81"/>
      <point x="260" y="-20" type="curve" smooth="yes"/>
      <point x="260" y="-6"/>
      <point x="259" y="7"/>
      <point x="256" y="24" type="curve"/>
      <point x="260" y="26" type="line"/>
      <point x="291" y="-1"/>
      <point x="333" y="-10"/>
      <point x="400" y="-10" type="curve" smooth="yes"/>
      <point x="676" y="-10"/>
      <point x="747" y="57"/>
      <point x="747" y="272" type="curve" smooth="yes"/>
      <point x="747" y="494"/>
      <point x="675" y="562"/>
      <point x="398" y="562" type="curve" smooth="yes"/>
      <point x="164" y="562"/>
      <point x="66" y="505"/>
      <point x="66" y="329" type="curve"/>
      <point x="256" y="329" type="line"/>
      <point x="256" y="403"/>
      <point x="297" y="436"/>
      <point x="398" y="436" type="curve" smooth="yes"/>
      <point x="527" y="436"/>
      <point x="550" y="396"/>
      <point x="550" y="282" type="curve" smooth="yes"/>
      <point x="550" y="170"/>
      <point x="532" y="116"/>
      <point x="397" y="116" type="curve" smooth="yes"/>
      <point x="297" y="116"/>
      <point x="258" y="148"/>
      <point x="258" y="206" type="curve"/>
      <point x="65" y="206" type="line"/>
      <point x="65" y="34" type="line" smooth="yes"/>
      <point x="65" y="-188"/>
      <point x="102" y="-240"/>
    </contour>
  </outline>
</glyph>
<glyph name="uniA912" format="2">
  <advance width="812"/>
  <unicode hex="A912"/>
  <anchor x="406" y="0" name="bottom"/>
  <anchor x="257" y="0" name="bottom_alt"/>
  <anchor x="406" y="605" name="top"/>
  <outline>
    <contour>
      <point x="549" y="-10" type="curve" smooth="yes"/>
      <point x="696" y="-10"/>
      <point x="747" y="70"/>
      <point x="747" y="160" type="curve" smooth="yes"/>
      <point x="747" y="260"/>
      <point x="685" y="363"/>
      <point x="533" y="363" type="curve" smooth="yes"/>
      <point x="410" y="363"/>
      <point x="323" y="326"/>
      <point x="254" y="241" type="curve"/>
      <point x="249" y="242" type="line"/>
      <point x="252" y="259"/>
      <point x="255" y="294"/>
      <point x="255" y="333" type="curve" smooth="yes"/>
      <point x="255" y="437" type="line"/>
      <point x="733" y="361" type="line"/>
      <point x="733" y="476" type="line"/>
      <point x="255" y="553" type="line"/>
      <point x="65" y="553" type="line"/>
      <point x="65" y="0" type="line"/>
      <point x="255" y="0" type="line"/>
      <point x="255" y="88"/>
      <point x="359" y="261"/>
      <point x="513" y="261" type="curve" smooth="yes"/>
      <point x="562" y="261"/>
      <point x="584" y="244"/>
      <point x="584" y="233" type="curve"/>
      <point x="571" y="237"/>
      <point x="548" y="240"/>
      <point x="532" y="240" type="curve" smooth="yes"/>
      <point x="455" y="240"/>
      <point x="403" y="188"/>
      <point x="403" y="119" type="curve" smooth="yes"/>
      <point x="403" y="41"/>
      <point x="449" y="-10"/>
    </contour>
    <contour>
      <point x="536" y="68" type="curve" smooth="yes"/>
      <point x="504" y="68"/>
      <point x="483" y="81"/>
      <point x="483" y="119" type="curve" smooth="yes"/>
      <point x="483" y="154"/>
      <point x="501" y="171"/>
      <point x="538" y="171" type="curve" smooth="yes"/>
      <point x="563" y="171"/>
      <point x="581" y="160"/>
      <point x="590" y="152" type="curve"/>
      <point x="591" y="146"/>
      <point x="591" y="140"/>
      <point x="591" y="133" type="curve" smooth="yes"/>
      <point x="591" y="102"/>
      <point x="570" y="68"/>
    </contour>
  </outline>
</glyph>
<glyph name="uniA913" format="2">
  <advance width="812"/>
  <unicode hex="A913"/>
  <anchor x="406" y="0" name="bottom"/>
  <anchor x="256" y="0" name="bottom_alt"/>
  <anchor x="406" y="781" name="top"/>
  <outline>
    <contour>
      <point x="399" y="-10" type="curve"/>
      <point x="682" y="-10"/>
      <point x="747" y="50"/>
      <point x="747" y="273" type="curve" smooth="yes"/>
      <point x="747" y="714" type="line"/>
      <point x="554" y="714" type="line"/>
      <point x="554" y="269" type="line" smooth="yes"/>
      <point x="554" y="149"/>
      <point x="519" y="116"/>
      <point x="403" y="116" type="curve" smooth="yes"/>
      <point x="295" y="116"/>
      <point x="258" y="155"/>
      <point x="258" y="265" type="curve" smooth="yes"/>
      <point x="258" y="553" type="line"/>
      <point x="65" y="553" type="line"/>
      <point x="65" y="269" type="line" smooth="yes"/>
      <point x="65" y="50"/>
      <point x="124" y="-10"/>
    </contour>
    <contour>
      <point x="405" y="429" type="line"/>
      <point x="682" y="429" type="line"/>
      <point x="683" y="443"/>
      <point x="683" y="512"/>
      <point x="683" y="525" type="curve"/>
      <point x="565" y="553" type="line"/>
      <point x="405" y="553" type="line"/>
    </contour>
  </outline>
</glyph>
<glyph name="uniA914" format="2">
  <advance width="812"/>
  <unicode hex="A914"/>
  <anchor x="406" y="19" name="bottom"/>
  <anchor x="239" y="-220" name="bottom_alt"/>
  <anchor x="406" y="605" name="top"/>
  <outline>
    <contour>
      <point x="402" y="-240" type="curve" smooth="yes"/>
      <point x="540" y="-240" type="line"/>
      <point x="540" y="-111" type="line"/>
      <point x="412" y="-111" type="line" smooth="yes"/>
      <point x="296" y="-111"/>
      <point x="241" y="-97"/>
      <point x="241" y="-27" type="curve" smooth="yes"/>
      <point x="241" y="11"/>
      <point x="239" y="23"/>
      <point x="231" y="51" type="curve"/>
      <point x="235" y="52" type="line"/>
      <point x="258" y="3"/>
      <point x="324" y="-10"/>
      <point x="405" y="-10" type="curve" smooth="yes"/>
      <point x="681" y="-10"/>
      <point x="747" y="50"/>
      <point x="747" y="155" type="curve" smooth="yes"/>
      <point x="747" y="268"/>
      <point x="699" y="321"/>
      <point x="532" y="341" type="curve" smooth="yes"/>
      <point x="349" y="363" type="line" smooth="yes"/>
      <point x="283" y="371"/>
      <point x="268" y="381"/>
      <point x="268" y="402" type="curve" smooth="yes"/>
      <point x="268" y="424"/>
      <point x="289" y="451"/>
      <point x="406" y="451" type="curve" smooth="yes"/>
      <point x="481" y="451"/>
      <point x="546" y="431"/>
      <point x="546" y="367" type="curve"/>
      <point x="737" y="367" type="line"/>
      <point x="737" y="525"/>
      <point x="648" y="562"/>
      <point x="409" y="562" type="curve" smooth="yes"/>
      <point x="136" y="562"/>
      <point x="75" y="499"/>
      <point x="75" y="399" type="curve" smooth="yes"/>
      <point x="75" y="316"/>
      <point x="99" y="259"/>
      <point x="276" y="240" type="curve" smooth="yes"/>
      <point x="473" y="219" type="line" smooth="yes"/>
      <point x="534" y="213"/>
      <point x="559" y="193"/>
      <point x="559" y="156" type="curve" smooth="yes"/>
      <point x="559" y="118"/>
      <point x="534" y="103"/>
      <point x="409" y="103" type="curve" smooth="yes"/>
      <point x="323" y="103"/>
      <point x="242" y="119"/>
      <point x="242" y="140" type="curve"/>
      <point x="322" y="140" type="line"/>
      <point x="322" y="215" type="line"/>
      <point x="65" y="215" type="line"/>
      <point x="65" y="34" type="line" smooth="yes"/>
      <point x="65" y="-198"/>
      <point x="114" y="-240"/>
    </contour>
  </outline>
</glyph>
<glyph name="uniA915" format="2">
  <advance width="812"/>
  <unicode hex="A915"/>
  <anchor x="406" y="0" name="bottom"/>
  <anchor x="260" y="0" name="bottom_alt"/>
  <anchor x="406" y="605" name="top"/>
  <outline>
    <contour>
      <point x="403" y="-10" type="curve" smooth="yes"/>
      <point x="650" y="-10"/>
      <point x="747" y="39"/>
      <point x="747" y="208" type="curve"/>
      <point x="553" y="208" type="line"/>
      <point x="553" y="149"/>
      <point x="498" y="116"/>
      <point x="406" y="116" type="curve" smooth="yes"/>
      <point x="296" y="116"/>
      <point x="263" y="159"/>
      <point x="263" y="272" type="curve" smooth="yes"/>
      <point x="263" y="397"/>
      <point x="300" y="436"/>
      <point x="405" y="436" type="curve" smooth="yes"/>
      <point x="486" y="436"/>
      <point x="537" y="414"/>
      <point x="543" y="369" type="curve"/>
      <point x="152" y="303" type="line"/>
      <point x="164" y="205" type="line"/>
      <point x="747" y="298" type="line"/>
      <point x="742" y="499"/>
      <point x="676" y="562"/>
      <point x="409" y="562" type="curve" smooth="yes"/>
      <point x="126" y="562"/>
      <point x="65" y="485"/>
      <point x="65" y="272" type="curve" smooth="yes"/>
      <point x="65" y="49"/>
      <point x="131" y="-10"/>
    </contour>
  </outline>
</glyph>
<glyph name="uniA916" format="2">
  <advance width="812"/>
  <unicode hex="A916"/>
  <anchor x="406" y="0" name="bottom"/>
  <anchor x="260" y="0" name="bottom_alt"/>
  <anchor x="406" y="781" name="top"/>
  <outline>
    <contour>
      <point x="790" y="-4" type="curve"/>
      <point x="790" y="125" type="line"/>
      <point x="748" y="125"/>
      <point x="737" y="143"/>
      <point x="737" y="197" type="curve" smooth="yes"/>
      <point x="737" y="515" type="line"/>
      <point x="592" y="515" type="line" smooth="yes"/>
      <point x="489" y="515"/>
      <point x="385" y="473"/>
      <point x="316" y="401" type="curve" smooth="yes"/>
      <point x="287" y="371"/>
      <point x="265" y="336"/>
      <point x="256" y="311" type="curve"/>
      <point x="251" y="312" type="line"/>
      <point x="254" y="329"/>
      <point x="257" y="364"/>
      <point x="257" y="421" type="curve" smooth="yes"/>
      <point x="257" y="494" type="line" smooth="yes"/>
      <point x="257" y="581"/>
      <point x="303" y="613"/>
      <point x="417" y="613" type="curve" smooth="yes"/>
      <point x="502" y="613"/>
      <point x="539" y="598"/>
      <point x="539" y="565" type="curve"/>
      <point x="736" y="565" type="line"/>
      <point x="736" y="698"/>
      <point x="672" y="734"/>
      <point x="416" y="734" type="curve" smooth="yes"/>
      <point x="116" y="734"/>
      <point x="65" y="682"/>
      <point x="65" y="460" type="curve" smooth="yes"/>
      <point x="65" y="0" type="line"/>
      <point x="258" y="0" type="line"/>
      <point x="258" y="33" type="line" smooth="yes"/>
      <point x="258" y="219"/>
      <point x="421" y="375"/>
      <point x="544" y="375" type="curve"/>
      <point x="544" y="164" type="line" smooth="yes"/>
      <point x="544" y="31"/>
      <point x="596" y="-4"/>
    </contour>
  </outline>
</glyph>
<glyph name="uniA917" format="2">
  <advance width="812"/>
  <unicode hex="A917"/>
  <anchor x="406" y="0" name="bottom"/>
  <anchor x="256" y="0" name="bottom_alt"/>
  <anchor x="406" y="605" name="top"/>
  <outline>
    <contour>
      <point x="402" y="-10" type="curve" smooth="yes"/>
      <point x="680" y="-10"/>
      <point x="747" y="49"/>
      <point x="747" y="272" type="curve" smooth="yes"/>
      <point x="747" y="553" type="line"/>
      <point x="556" y="553" type="line"/>
      <point x="556" y="272" type="line" smooth="yes"/>
      <point x="556" y="149"/>
      <point x="521" y="116"/>
      <point x="405" y="116" type="curve" smooth="yes"/>
      <point x="291" y="116"/>
      <point x="256" y="153"/>
      <point x="256" y="272" type="curve" smooth="yes"/>
      <point x="256" y="553" type="line"/>
      <point x="65" y="553" type="line"/>
      <point x="65" y="272" type="line" smooth="yes"/>
      <point x="65" y="49"/>
      <point x="124" y="-10"/>
    </contour>
    <contour>
      <point x="194" y="116" type="line"/>
      <point x="403" y="276" type="line"/>
      <point x="620" y="116" type="line"/>
      <point x="620" y="241" type="line"/>
      <point x="403" y="401" type="line"/>
      <point x="194" y="241" type="line"/>
    </contour>
  </outline>
</glyph>
<glyph name="uniA918" format="2">
  <advance width="812"/>
  <unicode hex="A918"/>
  <anchor x="406" y="0" name="bottom"/>
  <anchor x="263" y="0" name="bottom_alt"/>
  <anchor x="406" y="605" name="top"/>
  <outline>
    <contour>
      <point x="65" y="0" type="line"/>
      <point x="592" y="0" type="line" smooth="yes"/>
      <point x="692" y="0"/>
      <point x="747" y="45"/>
      <point x="747" y="162" type="curve" smooth="yes"/>
      <point x="747" y="333" type="line"/>
      <point x="687" y="333" type="line" smooth="yes"/>
      <point x="528" y="333"/>
      <point x="415" y="226"/>
      <point x="333" y="129" type="curve"/>
      <point x="258" y="129" type="line"/>
      <point x="717" y="520" type="line"/>
      <point x="717" y="553" type="line"/>
      <point x="85" y="553" type="line"/>
      <point x="85" y="421" type="line"/>
      <point x="396" y="421" type="line"/>
      <point x="65" y="133" type="line"/>
    </contour>
    <contour>
      <point x="467" y="129" type="line"/>
      <point x="521" y="179"/>
      <point x="564" y="214"/>
      <point x="631" y="218" type="curve"/>
      <point x="631" y="184" type="line" smooth="yes"/>
      <point x="631" y="159"/>
      <point x="619" y="129"/>
      <point x="586" y="129" type="curve" smooth="yes"/>
    </contour>
  </outline>
</glyph>
<glyph name="uniA91A" format="2">
  <advance width="812"/>
  <unicode hex="A91A"/>
  <anchor x="406" y="0" name="bottom"/>
  <anchor x="260" y="-10" name="bottom_alt"/>
  <anchor x="406" y="605" name="top"/>
  <outline>
    <contour>
      <point x="444" y="-240" type="line"/>
      <point x="525" y="-240" type="line" smooth="yes"/>
      <point x="680" y="-240"/>
      <point x="747" y="-175"/>
      <point x="747" y="-35" type="curve" smooth="yes"/>
      <point x="747" y="563" type="line"/>
      <point x="592" y="563" type="line" smooth="yes"/>
      <point x="522" y="563"/>
      <point x="412" y="536"/>
      <point x="335" y="467" type="curve" smooth="yes"/>
      <point x="291" y="428"/>
      <point x="271" y="396"/>
      <point x="256" y="360" type="curve"/>
      <point x="251" y="361" type="line"/>
      <point x="254" y="373"/>
      <point x="257" y="401"/>
      <point x="257" y="458" type="curve" smooth="yes"/>
      <point x="257" y="553" type="line"/>
      <point x="65" y="553" type="line"/>
      <point x="65" y="0" type="line"/>
      <point x="258" y="0" type="line"/>
      <point x="258" y="73" type="line" smooth="yes"/>
      <point x="258" y="271"/>
      <point x="420" y="420"/>
      <point x="554" y="420" type="curve"/>
      <point x="554" y="-3" type="line" smooth="yes"/>
      <point x="554" y="-68"/>
      <point x="537" y="-91"/>
      <point x="482" y="-91" type="curve" smooth="yes"/>
      <point x="444" y="-91" type="line"/>
    </contour>
  </outline>
</glyph>
<glyph name="uniA91B" format="2">
  <advance width="852"/>
  <unicode hex="A91B"/>
  <anchor x="406" y="0" name="bottom"/>
  <anchor x="250" y="0" name="bottom_alt"/>
  <anchor x="406" y="605" name="top"/>
  <outline>
    <contour>
      <point x="291" y="-10" type="curve" smooth="yes"/>
      <point x="437" y="-10"/>
      <point x="502" y="36"/>
      <point x="502" y="200" type="curve" smooth="yes"/>
      <point x="502" y="323" type="line" smooth="yes"/>
      <point x="502" y="410"/>
      <point x="515" y="436"/>
      <point x="547" y="436" type="curve" smooth="yes"/>
      <point x="578" y="436"/>
      <point x="600" y="411"/>
      <point x="600" y="250" type="curve" smooth="yes"/>
      <point x="600" y="0" type="line"/>
      <point x="787" y="0" type="line"/>
      <point x="787" y="290" type="line" smooth="yes"/>
      <point x="787" y="512"/>
      <point x="735" y="563"/>
      <point x="563" y="563" type="curve" smooth="yes"/>
      <point x="411" y="563"/>
      <point x="349" y="517"/>
      <point x="349" y="363" type="curve" smooth="yes"/>
      <point x="349" y="240" type="line" smooth="yes"/>
      <point x="349" y="142"/>
      <point x="338" y="116"/>
      <point x="305" y="116" type="curve" smooth="yes"/>
      <point x="272" y="116"/>
      <point x="252" y="139"/>
      <point x="252" y="303" type="curve" smooth="yes"/>
      <point x="252" y="553" type="line"/>
      <point x="65" y="553" type="line"/>
      <point x="65" y="263" type="line" smooth="yes"/>
      <point x="65" y="41"/>
      <point x="114" y="-10"/>
    </contour>
  </outline>
</glyph>
<glyph name="uniA91C" format="2">
  <advance width="852"/>
  <unicode hex="A91C"/>
  <anchor x="406" y="19" name="bottom"/>
  <anchor x="254" y="-220" name="bottom_alt"/>
  <anchor x="406" y="605" name="top"/>
  <outline>
    <contour>
      <point x="415" y="-240" type="curve" smooth="yes"/>
      <point x="691" y="-240"/>
      <point x="787" y="-188"/>
      <point x="787" y="34" type="curve" smooth="yes"/>
      <point x="787" y="553" type="line"/>
      <point x="600" y="553" type="line"/>
      <point x="600" y="299" type="line" smooth="yes"/>
      <point x="600" y="134"/>
      <point x="579" y="116"/>
      <point x="545" y="116" type="curve" smooth="yes"/>
      <point x="508" y="116"/>
      <point x="508" y="174"/>
      <point x="508" y="260" type="curve" smooth="yes"/>
      <point x="508" y="355" type="line" smooth="yes"/>
      <point x="508" y="503"/>
      <point x="460" y="563"/>
      <point x="293" y="563" type="curve" smooth="yes"/>
      <point x="116" y="563"/>
      <point x="65" y="504"/>
      <point x="65" y="282" type="curve" smooth="yes"/>
      <point x="65" y="0" type="line"/>
      <point x="252" y="0" type="line"/>
      <point x="252" y="260" type="line" smooth="yes"/>
      <point x="252" y="415"/>
      <point x="274" y="437"/>
      <point x="307" y="437" type="curve" smooth="yes"/>
      <point x="335" y="437"/>
      <point x="350" y="411"/>
      <point x="350" y="326" type="curve" smooth="yes"/>
      <point x="350" y="190" type="line" smooth="yes"/>
      <point x="350" y="23"/>
      <point x="428" y="-10"/>
      <point x="513" y="-10" type="curve" smooth="yes"/>
      <point x="565" y="-10"/>
      <point x="592" y="14"/>
      <point x="604" y="41" type="curve"/>
      <point x="608" y="39" type="line"/>
      <point x="605" y="22"/>
      <point x="604" y="8"/>
      <point x="604" y="-10" type="curve" smooth="yes"/>
      <point x="604" y="-105"/>
      <point x="540" y="-118"/>
      <point x="414" y="-118" type="curve" smooth="yes"/>
      <point x="312" y="-118"/>
      <point x="256" y="-111"/>
      <point x="256" y="-61" type="curve"/>
      <point x="67" y="-61" type="line"/>
      <point x="67" y="-213"/>
      <point x="130" y="-240"/>
    </contour>
  </outline>
</glyph>
<glyph name="uniA91D" format="2">
  <advance width="812"/>
  <unicode hex="A91D"/>
  <anchor x="406" y="0" name="bottom"/>
  <anchor x="259" y="0" name="bottom_alt"/>
  <anchor x="406" y="781" name="top"/>
  <outline>
    <contour>
      <point x="413" y="-10" type="curve"/>
      <point x="688" y="-10"/>
      <point x="747" y="50"/>
      <point x="747" y="269" type="curve" smooth="yes"/>
      <point x="747" y="553" type="line"/>
      <point x="554" y="553" type="line"/>
      <point x="554" y="265" type="line" smooth="yes"/>
      <point x="554" y="155"/>
      <point x="517" y="116"/>
      <point x="409" y="116" type="curve" smooth="yes"/>
      <point x="293" y="116"/>
      <point x="258" y="149"/>
      <point x="258" y="269" type="curve" smooth="yes"/>
      <point x="258" y="714" type="line"/>
      <point x="65" y="714" type="line"/>
      <point x="65" y="273" type="line" smooth="yes"/>
      <point x="65" y="50"/>
      <point x="130" y="-10"/>
    </contour>
    <contour>
      <point x="130" y="429" type="curve"/>
      <point x="407" y="429" type="line"/>
      <point x="407" y="553" type="line"/>
      <point x="247" y="553" type="line"/>
      <point x="129" y="525" type="line"/>
      <point x="129" y="512"/>
      <point x="129" y="443"/>
    </contour>
  </outline>
</glyph>
<glyph name="uniA91E" format="2">
  <advance width="812"/>
  <unicode hex="A91E"/>
  <anchor x="406" y="19" name="bottom"/>
  <anchor x="240" y="-220" name="bottom_alt"/>
  <anchor x="406" y="605" name="top"/>
  <outline>
    <contour>
      <point x="408" y="-240" type="curve" smooth="yes"/>
      <point x="710" y="-240"/>
      <point x="747" y="-178"/>
      <point x="747" y="34" type="curve" smooth="yes"/>
      <point x="747" y="210" type="line"/>
      <point x="554" y="210" type="line"/>
      <point x="554" y="148"/>
      <point x="515" y="116"/>
      <point x="405" y="116" type="curve" smooth="yes"/>
      <point x="280" y="116"/>
      <point x="262" y="170"/>
      <point x="262" y="282" type="curve" smooth="yes"/>
      <point x="262" y="396"/>
      <point x="285" y="436"/>
      <point x="404" y="436" type="curve" smooth="yes"/>
      <point x="515" y="436"/>
      <point x="556" y="403"/>
      <point x="556" y="333" type="curve"/>
      <point x="746" y="333" type="line"/>
      <point x="746" y="505"/>
      <point x="648" y="562"/>
      <point x="404" y="562" type="curve" smooth="yes"/>
      <point x="137" y="562"/>
      <point x="65" y="494"/>
      <point x="65" y="272" type="curve" smooth="yes"/>
      <point x="65" y="57"/>
      <point x="136" y="-10"/>
      <point x="402" y="-10" type="curve" smooth="yes"/>
      <point x="479" y="-10"/>
      <point x="521" y="-1"/>
      <point x="552" y="26" type="curve"/>
      <point x="556" y="24" type="line"/>
      <point x="554" y="7"/>
      <point x="554" y="-6"/>
      <point x="554" y="-20" type="curve" smooth="yes"/>
      <point x="554" y="-86"/>
      <point x="518" y="-114"/>
      <point x="407" y="-114" type="curve" smooth="yes"/>
      <point x="262" y="-114"/>
      <point x="245" y="-99"/>
      <point x="245" y="-41" type="curve"/>
      <point x="79" y="-41" type="line"/>
      <point x="79" y="-201"/>
      <point x="120" y="-240"/>
    </contour>
  </outline>
</glyph>
<glyph name="uniA91F" format="2">
  <advance width="812"/>
  <unicode hex="A91F"/>
  <anchor x="401" y="0" name="bottom"/>
  <anchor x="242" y="-10" name="bottom_alt"/>
  <anchor x="406" y="605" name="top"/>
  <outline>
    <contour>
      <point x="445" y="-240" type="line"/>
      <point x="526" y="-240" type="line" smooth="yes"/>
      <point x="681" y="-240"/>
      <point x="747" y="-175"/>
      <point x="747" y="-35" type="curve" smooth="yes"/>
      <point x="747" y="553" type="line"/>
      <point x="554" y="553" type="line"/>
      <point x="554" y="480" type="line" smooth="yes"/>
      <point x="554" y="282"/>
      <point x="392" y="137"/>
      <point x="240" y="135" type="curve"/>
      <point x="240" y="152" type="line"/>
      <point x="353" y="225"/>
      <point x="445" y="352"/>
      <point x="445" y="502" type="curve" smooth="yes"/>
      <point x="445" y="553" type="line"/>
      <point x="258" y="553" type="line" smooth="yes"/>
      <point x="112" y="553"/>
      <point x="65" y="498"/>
      <point x="65" y="374" type="curve" smooth="yes"/>
      <point x="65" y="-1" type="line"/>
      <point x="183" y="-1" type="line" smooth="yes"/>
      <point x="300" y="-1"/>
      <point x="390" y="20"/>
      <point x="471" y="84" type="curve" smooth="yes"/>
      <point x="511" y="116"/>
      <point x="543" y="157"/>
      <point x="555" y="185" type="curve"/>
      <point x="560" y="184" type="line"/>
      <point x="558" y="170"/>
      <point x="555" y="142"/>
      <point x="555" y="95" type="curve" smooth="yes"/>
      <point x="555" y="-3" type="line" smooth="yes"/>
      <point x="555" y="-68"/>
      <point x="538" y="-91"/>
      <point x="483" y="-91" type="curve" smooth="yes"/>
      <point x="445" y="-91" type="line"/>
    </contour>
    <contour>
      <point x="240" y="288" type="curve"/>
      <point x="240" y="393" type="line" smooth="yes"/>
      <point x="240" y="438"/>
      <point x="248" y="454"/>
      <point x="282" y="454" type="curve" smooth="yes"/>
      <point x="324" y="454" type="line"/>
      <point x="324" y="395"/>
      <point x="294" y="331"/>
    </contour>
  </outline>
</glyph>
<glyph name="uniA920" format="2">
  <advance width="812"/>
  <unicode hex="A920"/>
  <anchor x="406" y="0" name="bottom"/>
  <anchor x="260" y="0" name="bottom_alt"/>
  <anchor x="406" y="605" name="top"/>
  <outline>
    <contour>
      <point x="406" y="-10" type="curve" smooth="yes"/>
      <point x="686" y="-10"/>
      <point x="747" y="42"/>
      <point x="747" y="264" type="curve" smooth="yes"/>
      <point x="747" y="553" type="line"/>
      <point x="541" y="553" type="line"/>
      <point x="405" y="382" type="line"/>
      <point x="271" y="553" type="line"/>
      <point x="65" y="553" type="line"/>
      <point x="65" y="251" type="line"/>
      <point x="259" y="251" type="line"/>
      <point x="259" y="391" type="line"/>
      <point x="374" y="252" type="line"/>
      <point x="436" y="252" type="line"/>
      <point x="553" y="403" type="line"/>
      <point x="553" y="230" type="line" smooth="yes"/>
      <point x="553" y="133"/>
      <point x="518" y="116"/>
      <point x="405" y="116" type="curve" smooth="yes"/>
      <point x="312" y="116"/>
      <point x="267" y="128"/>
      <point x="260" y="169" type="curve"/>
      <point x="66" y="169" type="line"/>
      <point x="82" y="17"/>
      <point x="150" y="-10"/>
    </contour>
  </outline>
</glyph>
<glyph name="uniA921" format="2">
  <advance width="812"/>
  <unicode hex="A921"/>
  <anchor x="406" y="0" name="bottom"/>
  <anchor x="260" y="0" name="bottom_alt"/>
  <anchor x="406" y="781" name="top"/>
  <outline>
    <contour>
      <point x="65" y="0" type="line"/>
      <point x="259" y="0" type="line"/>
      <point x="259" y="299" type="line"/>
      <point x="553" y="0" type="line"/>
      <point x="747" y="0" type="line"/>
      <point x="747" y="460" type="line" smooth="yes"/>
      <point x="747" y="682"/>
      <point x="696" y="734"/>
      <point x="413" y="734" type="curve" smooth="yes"/>
      <point x="160" y="734"/>
      <point x="82" y="707"/>
      <point x="66" y="565" type="curve"/>
      <point x="257" y="565" type="line"/>
      <point x="264" y="596"/>
      <point x="312" y="613"/>
      <point x="404" y="613" type="curve" smooth="yes"/>
      <point x="507" y="613"/>
      <point x="553" y="581"/>
      <point x="553" y="494" type="curve" smooth="yes"/>
      <point x="553" y="212" type="line"/>
      <point x="259" y="506" type="line"/>
      <point x="65" y="506" type="line"/>
    </contour>
  </outline>
</glyph>
<glyph name="uniA922" format="2">
  <advance width="812"/>
  <unicode hex="A922"/>
  <anchor x="406" y="0" name="bottom"/>
  <anchor x="270" y="0" name="bottom_alt"/>
  <anchor x="406" y="605" name="top"/>
  <outline>
    <contour>
      <point x="414" y="-10" type="curve" smooth="yes"/>
      <point x="645" y="-10"/>
      <point x="744" y="31"/>
      <point x="744" y="208" type="curve"/>
      <point x="552" y="208" type="line"/>
      <point x="552" y="141"/>
      <point x="523" y="111"/>
      <point x="410" y="111" type="curve" smooth="yes"/>
      <point x="296" y="111"/>
      <point x="271" y="141"/>
      <point x="271" y="172" type="curve" smooth="yes"/>
      <point x="271" y="215"/>
      <point x="299" y="228"/>
      <point x="379" y="228" type="curve"/>
      <point x="379" y="331" type="line"/>
      <point x="307" y="331"/>
      <point x="281" y="342"/>
      <point x="281" y="387" type="curve" smooth="yes"/>
      <point x="281" y="422"/>
      <point x="310" y="442"/>
      <point x="409" y="442" type="curve" smooth="yes"/>
      <point x="504" y="442"/>
      <point x="552" y="419"/>
      <point x="553" y="331" type="curve"/>
      <point x="744" y="331" type="line"/>
      <point x="744" y="526"/>
      <point x="645" y="563"/>
      <point x="412" y="563" type="curve" smooth="yes"/>
      <point x="129" y="563"/>
      <point x="78" y="505"/>
      <point x="78" y="401" type="curve" smooth="yes"/>
      <point x="78" y="331"/>
      <point x="97" y="297"/>
      <point x="178" y="279" type="curve"/>
      <point x="178" y="275" type="line"/>
      <point x="95" y="264"/>
      <point x="68" y="227"/>
      <point x="68" y="145" type="curve" smooth="yes"/>
      <point x="68" y="48"/>
      <point x="129" y="-10"/>
    </contour>
  </outline>
</glyph>
<glyph name="uniA923" format="2">
  <advance width="812"/>
  <unicode hex="A923"/>
  <anchor x="406" y="0" name="bottom"/>
  <anchor x="259" y="0" name="bottom_alt"/>
  <anchor x="406" y="605" name="top"/>
  <outline>
    <contour>
      <point x="65" y="-10" type="line"/>
      <point x="220" y="-10" type="line" smooth="yes"/>
      <point x="290" y="-10"/>
      <point x="400" y="17"/>
      <point x="477" y="86" type="curve" smooth="yes"/>
      <point x="515" y="120"/>
      <point x="543" y="157"/>
      <point x="555" y="183" type="curve"/>
      <point x="560" y="182" type="line"/>
      <point x="558" y="170"/>
      <point x="555" y="142"/>
      <point x="555" y="95" type="curve" smooth="yes"/>
      <point x="555" y="0" type="line"/>
      <point x="747" y="0" type="line"/>
      <point x="747" y="553" type="line"/>
      <point x="554" y="553" type="line"/>
      <point x="554" y="480" type="line" smooth="yes"/>
      <point x="554" y="282"/>
      <point x="392" y="133"/>
      <point x="258" y="133" type="curve"/>
      <point x="258" y="553" type="line"/>
      <point x="65" y="553" type="line"/>
    </contour>
  </outline>
</glyph>
<glyph name="uniA924" format="2">
  <advance width="812"/>
  <unicode hex="A924"/>
  <anchor x="406" y="0" name="bottom"/>
  <anchor x="261" y="0" name="bottom_alt"/>
  <anchor x="406" y="605" name="top"/>
  <outline>
    <contour>
      <point x="401" y="-10" type="curve" smooth="yes"/>
      <point x="677" y="-10"/>
      <point x="747" y="57"/>
      <point x="747" y="274" type="curve" smooth="yes"/>
      <point x="747" y="503"/>
      <point x="682" y="562"/>
      <point x="410" y="562" type="curve" smooth="yes"/>
      <point x="152" y="562"/>
      <point x="65" y="515"/>
      <point x="65" y="328" type="curve"/>
      <point x="258" y="328" type="line"/>
      <point x="258" y="401"/>
      <point x="299" y="436"/>
      <point x="407" y="436" type="curve" smooth="yes"/>
      <point x="516" y="436"/>
      <point x="549" y="395"/>
      <point x="549" y="274" type="curve" smooth="yes"/>
      <point x="549" y="157"/>
      <point x="513" y="116"/>
      <point x="404" y="116" type="curve" smooth="yes"/>
      <point x="325" y="116"/>
      <point x="287" y="124"/>
      <point x="261" y="138" type="curve"/>
      <point x="632" y="373" type="line"/>
      <point x="586" y="470" type="line"/>
      <point x="67" y="147" type="line"/>
      <point x="99" y="18"/>
      <point x="193" y="-10"/>
    </contour>
  </outline>
</glyph>
<glyph name="uniA925" format="2">
  <advance width="812"/>
  <unicode hex="A925"/>
  <anchor x="406" y="0" name="bottom"/>
  <anchor x="256" y="0" name="bottom_alt"/>
  <anchor x="406" y="605" name="top"/>
  <outline>
    <contour>
      <point x="397" y="-10" type="curve" smooth="yes"/>
      <point x="671" y="-10"/>
      <point x="747" y="49"/>
      <point x="747" y="272" type="curve" smooth="yes"/>
      <point x="747" y="510"/>
      <point x="663" y="562"/>
      <point x="402" y="562" type="curve" smooth="yes"/>
      <point x="136" y="562"/>
      <point x="65" y="510"/>
      <point x="65" y="272" type="curve" smooth="yes"/>
      <point x="65" y="49"/>
      <point x="151" y="-10"/>
    </contour>
    <contour>
      <point x="400" y="116" type="curve" smooth="yes"/>
      <point x="287" y="116"/>
      <point x="254" y="169"/>
      <point x="254" y="272" type="curve" smooth="yes"/>
      <point x="254" y="396"/>
      <point x="280" y="436"/>
      <point x="399" y="436" type="curve" smooth="yes"/>
      <point x="522" y="436"/>
      <point x="558" y="391"/>
      <point x="558" y="272" type="curve" smooth="yes"/>
      <point x="558" y="163"/>
      <point x="526" y="116"/>
    </contour>
    <contour>
      <point x="403" y="237" type="curve"/>
      <point x="512" y="237"/>
      <point x="598" y="279"/>
      <point x="628" y="297" type="curve"/>
      <point x="628" y="402" type="line"/>
      <point x="591" y="382"/>
      <point x="494" y="342"/>
      <point x="403" y="342" type="curve" smooth="yes"/>
      <point x="312" y="342"/>
      <point x="217" y="386"/>
      <point x="186" y="402" type="curve"/>
      <point x="186" y="297" type="line"/>
      <point x="209" y="281"/>
      <point x="287" y="237"/>
    </contour>
  </outline>
</glyph>
<glyph name="uniA926" format="2">
  <unicode hex="A926"/>
  <anchor x="-381" y="566" name="_top"/>
  <outline>
    <contour>
      <point x="-385" y="608" type="curve" smooth="yes"/>
      <point x="-341" y="608"/>
      <point x="-302" y="630"/>
      <point x="-302" y="692" type="curve" smooth="yes"/>
      <point x="-302" y="755"/>
      <point x="-341" y="776"/>
      <point x="-385" y="776" type="curve" smooth="yes"/>
      <point x="-431" y="776"/>
      <point x="-469" y="755"/>
      <point x="-469" y="692" type="curve" smooth="yes"/>
      <point x="-469" y="630"/>
      <point x="-431" y="608"/>
    </contour>
  </outline>
</glyph>
<glyph name="uniA927" format="2">
  <unicode hex="A927"/>
  <anchor x="-381" y="566" name="_top"/>
  <outline>
    <contour>
      <point x="-168" y="574" type="line"/>
      <point x="-168" y="707" type="line"/>
      <point x="-602" y="809" type="line"/>
      <point x="-602" y="675" type="line"/>
    </contour>
  </outline>
</glyph>
<glyph name="uniA928" format="2">
  <unicode hex="A928"/>
  <anchor x="-381" y="566" name="_top"/>
  <outline>
    <contour>
      <point x="-615" y="564" type="line"/>
      <point x="-380" y="667" type="line"/>
      <point x="-145" y="564" type="line"/>
      <point x="-145" y="698" type="line"/>
      <point x="-380" y="801" type="line"/>
      <point x="-615" y="698" type="line"/>
    </contour>
  </outline>
</glyph>
<glyph name="uniA929" format="2">
  <unicode hex="A929"/>
  <anchor x="-381" y="566" name="_top"/>
  <outline>
    <contour>
      <point x="-381" y="591" type="curve" smooth="yes"/>
      <point x="-118" y="591"/>
      <point x="-100" y="665"/>
      <point x="-100" y="810" type="curve"/>
      <point x="-256" y="810" type="line"/>
      <point x="-256" y="720"/>
      <point x="-289" y="694"/>
      <point x="-379" y="694" type="curve" smooth="yes"/>
      <point x="-469" y="694"/>
      <point x="-500" y="720"/>
      <point x="-500" y="810" type="curve"/>
      <point x="-656" y="810" type="line"/>
      <point x="-656" y="671"/>
      <point x="-644" y="591"/>
    </contour>
  </outline>
</glyph>
<glyph name="uniA92A" format="2">
  <unicode hex="A92A"/>
  <anchor x="-381" y="566" name="_top"/>
  <outline>
    <contour>
      <point x="-381" y="591" type="curve" smooth="yes"/>
      <point x="-118" y="591"/>
      <point x="-100" y="665"/>
      <point x="-100" y="810" type="curve"/>
      <point x="-256" y="810" type="line"/>
      <point x="-256" y="720"/>
      <point x="-289" y="694"/>
      <point x="-379" y="694" type="curve" smooth="yes"/>
      <point x="-469" y="694"/>
      <point x="-500" y="720"/>
      <point x="-500" y="810" type="curve"/>
      <point x="-656" y="810" type="line"/>
      <point x="-656" y="671"/>
      <point x="-644" y="591"/>
    </contour>
    <contour>
      <point x="-377" y="709" type="curve" smooth="yes"/>
      <point x="-344" y="709"/>
      <point x="-315" y="726"/>
      <point x="-315" y="772" type="curve" smooth="yes"/>
      <point x="-315" y="819"/>
      <point x="-344" y="835"/>
      <point x="-377" y="835" type="curve" smooth="yes"/>
      <point x="-412" y="835"/>
      <point x="-440" y="819"/>
      <point x="-440" y="772" type="curve" smooth="yes"/>
      <point x="-440" y="726"/>
      <point x="-412" y="709"/>
    </contour>
  </outline>
</glyph>
<glyph name="uniA92B" format="2">
  <unicode hex="A92B"/>
  <anchor x="-386" y="0" name="_bottom"/>
  <outline>
    <contour>
      <point x="-385" y="-222" type="curve" smooth="yes"/>
      <point x="-341" y="-222"/>
      <point x="-302" y="-200"/>
      <point x="-302" y="-138" type="curve" smooth="yes"/>
      <point x="-302" y="-75"/>
      <point x="-341" y="-54"/>
      <point x="-385" y="-54" type="curve" smooth="yes"/>
      <point x="-431" y="-54"/>
      <point x="-469" y="-75"/>
      <point x="-469" y="-138" type="curve" smooth="yes"/>
      <point x="-469" y="-200"/>
      <point x="-431" y="-222"/>
    </contour>
  </outline>
</glyph>
<glyph name="uniA92C" format="2">
  <unicode hex="A92C"/>
  <anchor x="-543" y="0" name="_bottom_alt"/>
  <outline>
    <contour>
      <point x="-409" y="-246" type="curve" smooth="yes"/>
      <point x="-173" y="-246"/>
      <point x="-74" y="-208"/>
      <point x="-74" y="-52" type="curve"/>
      <point x="-257" y="-52" type="line"/>
      <point x="-257" y="-114"/>
      <point x="-305" y="-137"/>
      <point x="-413" y="-137" type="curve" smooth="yes"/>
      <point x="-530" y="-137"/>
      <point x="-553" y="-100"/>
      <point x="-553" y="-68" type="curve" smooth="yes"/>
      <point x="-553" y="-30"/>
      <point x="-526" y="-7"/>
      <point x="-460" y="2" type="curve"/>
      <point x="-460" y="30" type="line"/>
      <point x="-639" y="30" type="line"/>
      <point x="-722" y="19"/>
      <point x="-749" y="-7"/>
      <point x="-749" y="-85" type="curve" smooth="yes"/>
      <point x="-749" y="-188"/>
      <point x="-688" y="-246"/>
    </contour>
  </outline>
</glyph>
<glyph name="uniA92D" format="2">
  <unicode hex="A92D"/>
  <anchor x="-543" y="0" name="_bottom_alt"/>
  <outline>
    <contour>
      <point x="-409" y="-246" type="curve" smooth="yes"/>
      <point x="-173" y="-246"/>
      <point x="-74" y="-208"/>
      <point x="-74" y="-52" type="curve"/>
      <point x="-257" y="-52" type="line"/>
      <point x="-257" y="-123"/>
      <point x="-305" y="-146"/>
      <point x="-413" y="-146" type="curve" smooth="yes"/>
      <point x="-530" y="-146"/>
      <point x="-553" y="-109"/>
      <point x="-553" y="-68" type="curve" smooth="yes"/>
      <point x="-553" y="-30"/>
      <point x="-526" y="-7"/>
      <point x="-460" y="2" type="curve"/>
      <point x="-460" y="30" type="line"/>
      <point x="-639" y="30" type="line"/>
      <point x="-722" y="19"/>
      <point x="-749" y="-7"/>
      <point x="-749" y="-85" type="curve" smooth="yes"/>
      <point x="-749" y="-188"/>
      <point x="-688" y="-246"/>
    </contour>
    <contour>
      <point x="-403" y="-135" type="curve" smooth="yes"/>
      <point x="-373" y="-135"/>
      <point x="-347" y="-120"/>
      <point x="-347" y="-78" type="curve" smooth="yes"/>
      <point x="-347" y="-35"/>
      <point x="-373" y="-21"/>
      <point x="-403" y="-21" type="curve" smooth="yes"/>
      <point x="-435" y="-21"/>
      <point x="-460" y="-35"/>
      <point x="-460" y="-78" type="curve" smooth="yes"/>
      <point x="-460" y="-120"/>
      <point x="-435" y="-135"/>
    </contour>
  </outline>
</glyph>
<glyph name="uniA92E" format="2">
  <advance width="772"/>
  <unicode hex="A92E"/>
  <outline>
    <contour>
      <point x="49" y="221" type="line"/>
      <point x="99" y="266"/>
      <point x="188" y="299"/>
      <point x="385" y="299" type="curve" smooth="yes"/>
      <point x="582" y="299"/>
      <point x="673" y="266"/>
      <point x="723" y="221" type="curve"/>
      <point x="744" y="231" type="line"/>
      <point x="711" y="330"/>
      <point x="574" y="414"/>
      <point x="383" y="414" type="curve" smooth="yes"/>
      <point x="192" y="414"/>
      <point x="61" y="329"/>
      <point x="28" y="231" type="curve"/>
    </contour>
  </outline>
</glyph>
<glyph name="uniA92F" format="2">
  <advance width="324"/>
  <unicode hex="A92F"/>
  <outline>
    <contour>
      <point x="65" y="1" type="line"/>
      <point x="259" y="1" type="line"/>
      <point x="259" y="536" type="line"/>
      <point x="65" y="536" type="line"/>
    </contour>
  </outline>
</glyph>
<glyph name="uniA92C.alt" format="2">
  <anchor x="-551" y="0" name="_bottom_alt"/>
  <outline>
    <contour>
      <point x="-401" y="-246" type="curve" smooth="yes"/>
      <point x="-161" y="-246"/>
      <point x="-74" y="-201"/>
      <point x="-74" y="-52" type="curve"/>
      <point x="-257" y="-52" type="line"/>
      <point x="-257" y="-122"/>
      <point x="-309" y="-146"/>
      <point x="-405" y="-146" type="curve" smooth="yes"/>
      <point x="-516" y="-146"/>
      <point x="-553" y="-121"/>
      <point x="-553" y="-68" type="curve" smooth="yes"/>
      <point x="-553" y="15" type="line"/>
      <point x="-749" y="15" type="line"/>
      <point x="-749" y="-72" type="line" smooth="yes"/>
      <point x="-749" y="-205"/>
      <point x="-668" y="-246"/>
    </contour>
  </outline>
</glyph>
<glyph name="uniA92D.alt" format="2">
  <anchor x="-551" y="0" name="_bottom_alt"/>
  <outline>
    <contour>
      <point x="-401" y="-246" type="curve" smooth="yes"/>
      <point x="-161" y="-246"/>
      <point x="-74" y="-201"/>
      <point x="-74" y="-52" type="curve"/>
      <point x="-257" y="-52" type="line"/>
      <point x="-257" y="-122"/>
      <point x="-309" y="-146"/>
      <point x="-405" y="-146" type="curve" smooth="yes"/>
      <point x="-516" y="-146"/>
      <point x="-553" y="-121"/>
      <point x="-553" y="-68" type="curve" smooth="yes"/>
      <point x="-553" y="15" type="line"/>
      <point x="-749" y="15" type="line"/>
      <point x="-749" y="-72" type="line" smooth="yes"/>
      <point x="-749" y="-205"/>
      <point x="-668" y="-246"/>
    </contour>
    <contour>
      <point x="-406" y="-135" type="curve" smooth="yes"/>
      <point x="-376" y="-135"/>
      <point x="-350" y="-120"/>
      <point x="-350" y="-78" type="curve" smooth="yes"/>
      <point x="-350" y="-35"/>
      <point x="-376" y="-21"/>
      <point x="-406" y="-21" type="curve" smooth="yes"/>
      <point x="-438" y="-21"/>
      <point x="-463" y="-35"/>
      <point x="-463" y="-78" type="curve" smooth="yes"/>
      <point x="-463" y="-120"/>
      <point x="-438" y="-135"/>
    </contour>
  </outline>
</glyph>
